<svg width="70" height="36" viewBox="0 0 70 36" fill="none" xmlns="http://www.w3.org/2000/svg">
<path d="M66.6243 20.528C66.5763 20.528 66.5443 20.524 66.5283 20.516C66.4163 20.444 66.3243 20.364 66.2523 20.276C66.2363 20.26 66.2243 20.244 66.2163 20.228C66.2163 20.22 66.2123 20.216 66.2043 20.216C66.1883 20.2 66.1763 20.192 66.1683 20.192H66.1563L66.0963 20.144L64.9203 18.572C64.9043 18.516 64.8763 18.464 64.8363 18.416C64.8043 18.36 64.7683 18.304 64.7283 18.248C64.6963 18.224 64.6683 18.2 64.6443 18.176C64.6203 18.144 64.6003 18.112 64.5843 18.08C64.5523 18.032 64.5203 18.008 64.4883 18.008C64.4563 18.008 64.4323 18.052 64.4163 18.14C64.4003 18.244 64.3883 18.404 64.3803 18.62C64.3803 18.836 64.3803 19.036 64.3803 19.22C64.3803 19.54 64.3603 19.812 64.3203 20.036C64.3123 20.132 64.2803 20.18 64.2243 20.18H64.1403L64.1043 20.156H64.0923C63.9083 20.172 63.6603 20.188 63.3483 20.204C63.0363 20.228 62.7243 20.248 62.4123 20.264C62.1083 20.28 61.8643 20.288 61.6803 20.288C61.6403 20.288 61.6043 20.284 61.5723 20.276C61.5403 20.276 61.5123 20.272 61.4883 20.264H60.9243L60.5163 20.12L60.4803 20.036V19.988C60.4723 19.972 60.4683 19.94 60.4683 19.892C60.4683 19.876 60.4643 19.848 60.4563 19.808C60.4483 19.76 60.4403 19.704 60.4323 19.64C60.4083 19.408 60.3923 19.208 60.3843 19.04C60.3843 18.864 60.3883 18.804 60.3963 18.86C60.3883 18.756 60.3763 18.616 60.3603 18.44C60.3443 18.264 60.3283 18.052 60.3123 17.804L60.2883 17.384C60.2883 17.104 60.2763 16.888 60.2523 16.736L60.2163 16.484C60.1923 16.324 60.1803 16.172 60.1803 16.028C60.1883 15.884 60.1923 15.744 60.1923 15.608C60.1923 15.592 60.1963 15.58 60.2043 15.572V15.464C60.2123 15.432 60.2163 15.36 60.2163 15.248L60.2403 15.044L60.2523 14.912C60.2523 14.752 60.2403 14.512 60.2163 14.192C60.1923 14 60.1803 13.756 60.1803 13.46C60.1803 13.252 60.1843 13.068 60.1923 12.908C60.2083 12.748 60.2323 12.62 60.2643 12.524C60.3203 12.244 60.4363 12.104 60.6123 12.104C61.0443 12.104 61.4803 12.112 61.9203 12.128C62.3683 12.136 62.8123 12.14 63.2523 12.14C63.3563 12.14 63.4803 12.144 63.6243 12.152C63.7763 12.152 63.9523 12.156 64.1523 12.164L64.5963 12.176L66.2283 12.2C67.2123 12.232 67.9643 12.48 68.4843 12.944C68.7163 13.136 68.8883 13.368 69.0003 13.64C69.1123 13.912 69.1683 14.2 69.1683 14.504C69.1683 14.848 69.1083 15.16 68.9883 15.44C68.8763 15.712 68.7163 15.948 68.5083 16.148C68.3083 16.332 68.0883 16.48 67.8483 16.592C67.8803 16.6 67.9163 16.636 67.9563 16.7C67.9963 16.756 68.0243 16.816 68.0403 16.88C68.0563 16.912 68.0763 16.936 68.1003 16.952C68.1323 16.96 68.1643 16.984 68.1963 17.024L68.3523 17.216L68.4363 17.3C68.4603 17.324 68.4763 17.348 68.4843 17.372C68.5003 17.388 68.5163 17.408 68.5323 17.432L68.9043 17.984C69.0163 18.144 69.1123 18.28 69.1923 18.392C69.2803 18.496 69.3403 18.588 69.3723 18.668C69.4283 18.772 69.4563 18.848 69.4563 18.896C69.4563 19.032 69.3363 19.18 69.0963 19.34C69.0403 19.372 68.9883 19.404 68.9403 19.436C68.8923 19.468 68.8363 19.5 68.7723 19.532C68.6443 19.588 68.5523 19.644 68.4963 19.7L68.0883 19.988C68.0083 20.044 67.9283 20.084 67.8483 20.108C67.7683 20.14 67.6843 20.168 67.5963 20.192C67.5803 20.192 67.5723 20.196 67.5723 20.204C67.5723 20.212 67.5643 20.212 67.5483 20.204C67.5403 20.204 67.5283 20.212 67.5123 20.228C67.4883 20.252 67.3643 20.296 67.1403 20.36C67.1003 20.384 67.0323 20.404 66.9363 20.42C66.8803 20.46 66.8283 20.48 66.7803 20.48H66.7323C66.7163 20.512 66.7043 20.528 66.6963 20.528H66.6243ZM64.3563 16.34H64.5243C64.7643 16.34 64.9323 16.228 65.0283 16.004C65.1243 15.772 65.1803 15.52 65.1963 15.248C65.2043 15.16 65.2083 15.068 65.2083 14.972C65.2163 14.876 65.2203 14.772 65.2203 14.66V14.54C65.2203 14.356 65.2083 14.156 65.1843 13.94C65.1603 13.724 65.0563 13.56 64.8723 13.448C64.7683 13.376 64.6523 13.34 64.5243 13.34C64.4843 13.34 64.4563 13.388 64.4403 13.484C64.3763 13.652 64.3363 13.924 64.3203 14.3C64.3123 14.372 64.3043 14.452 64.2963 14.54C64.2883 14.628 64.2803 14.724 64.2723 14.828L64.2603 15.176C64.2523 15.4 64.2483 15.608 64.2483 15.8C64.2483 15.984 64.2483 16.148 64.2483 16.292C64.2483 16.316 64.2563 16.328 64.2723 16.328L64.3563 16.34Z" fill="white"/>
<path d="M59.3613 20.024C59.3053 20.024 59.2573 20.02 59.2173 20.012C59.1773 20.012 59.1373 20.008 59.0973 20H57.1053C57.0973 20 57.0853 20 57.0693 20C57.0533 19.992 57.0333 19.984 57.0093 19.976H56.6493L56.1333 19.964C56.1013 19.964 56.0813 19.968 56.0733 19.976C56.0573 19.992 56.0253 20 55.9773 20H55.9413L55.9293 19.988C55.8973 19.988 55.8813 19.984 55.8813 19.976C55.8573 19.968 55.8333 19.964 55.8093 19.964C55.7853 19.964 55.7653 19.964 55.7493 19.964C55.7333 19.9 55.7133 19.784 55.6893 19.616C55.6653 19.44 55.6093 19.192 55.5213 18.872L55.4253 18.536H54.7533C54.6253 18.536 54.5133 18.532 54.4173 18.524C54.3213 18.516 54.2213 18.5 54.1173 18.476C54.1173 18.508 54.1133 18.544 54.1053 18.584C54.0973 18.624 54.0893 18.68 54.0813 18.752C54.0253 19.048 53.9693 19.308 53.9133 19.532C53.8573 19.756 53.8093 19.9 53.7693 19.964C53.7053 19.964 53.6293 19.964 53.5413 19.964C53.4533 19.964 53.3493 19.968 53.2293 19.976C53.1093 19.976 53.0333 19.984 53.0013 20H52.8933C52.8853 20 52.8813 19.992 52.8813 19.976C52.8733 19.968 52.8613 19.964 52.8453 19.964C52.7813 19.964 52.7373 19.968 52.7133 19.976V20H51.1173C51.0853 20.008 51.0453 20.012 50.9973 20.012C50.9573 20.02 50.9053 20.024 50.8413 20.024H50.7213C50.6573 20.024 50.6133 20.004 50.5893 19.964C50.5333 19.884 50.5053 19.796 50.5053 19.7C50.5053 19.644 50.5093 19.604 50.5173 19.58C50.5173 19.54 50.5173 19.504 50.5173 19.472C50.5173 19.432 50.5213 19.388 50.5293 19.34C50.5453 19.252 50.5653 19.188 50.5893 19.148C50.6133 19.06 50.6253 19 50.6253 18.968C50.6413 18.872 50.7133 18.536 50.8413 17.96C50.9773 17.376 51.1613 16.592 51.3933 15.608C51.6253 14.624 51.8973 13.484 52.2093 12.188C52.2093 12.18 52.2173 12.16 52.2333 12.128C52.2573 12.096 52.2853 12.072 52.3173 12.056H52.3653L52.3893 12.08C52.4293 12.08 52.4573 12.072 52.4733 12.056C52.4973 12.04 52.5213 12.028 52.5453 12.02C52.6093 12.004 52.6573 11.996 52.6893 11.996C52.7453 11.996 52.7973 12 52.8453 12.008C52.9013 12.008 52.9573 12.012 53.0133 12.02C53.0293 12.02 53.0493 12.02 53.0733 12.02C53.0973 12.012 53.1173 12.016 53.1333 12.032C53.1493 12.04 53.1733 12.048 53.2053 12.056C53.2453 12.056 53.2813 12.056 53.3133 12.056C53.3133 12.04 53.3333 12.032 53.3733 12.032C53.4133 12.024 53.4413 12.02 53.4573 12.02C53.5293 12.012 53.6133 12.008 53.7093 12.008C53.8053 12 53.9333 11.996 54.0933 11.996H55.2333C55.2333 12.004 55.2693 12.008 55.3413 12.008C55.3813 12.008 55.4133 12.008 55.4373 12.008C55.4693 12.008 55.5013 12.012 55.5333 12.02H56.1333C56.1493 12.028 56.1653 12.036 56.1813 12.044C56.2053 12.052 56.2253 12.056 56.2413 12.056C56.2813 12.056 56.3213 12.056 56.3613 12.056C56.4093 12.048 56.4533 12.04 56.4933 12.032C56.5333 12.024 56.5733 12.02 56.6133 12.02C56.6613 12.02 56.6933 12.02 56.7093 12.02C56.7973 12.012 56.8773 12.008 56.9493 12.008C57.0213 12 57.0973 11.996 57.1773 11.996C57.2253 11.996 57.2733 11.992 57.3213 11.984C57.3693 11.976 57.4213 11.988 57.4773 12.02C57.5413 12.052 57.5973 12.072 57.6453 12.08C57.7013 12.08 57.7493 12.08 57.7893 12.08C57.8213 12.08 57.8373 12.072 57.8373 12.056H57.8853C57.9093 12.064 57.9333 12.088 57.9573 12.128C57.9813 12.16 57.9933 12.18 57.9933 12.188C58.0733 12.492 58.1653 12.86 58.2693 13.292C58.3733 13.716 58.4813 14.172 58.5933 14.66C58.7133 15.148 58.8333 15.644 58.9533 16.148C59.0733 16.652 59.1893 17.136 59.3013 17.6C59.4133 18.056 59.5093 18.468 59.5893 18.836C59.6053 18.916 59.6133 18.972 59.6133 19.004C59.6213 19.036 59.6293 19.072 59.6373 19.112C59.6453 19.168 59.6653 19.26 59.6973 19.388C59.7373 19.516 59.7573 19.612 59.7573 19.676C59.7573 19.74 59.7413 19.776 59.7093 19.784C59.6773 19.944 59.6093 20.024 59.5053 20.024H59.3613ZM54.2613 17.108C54.3093 17.108 54.3333 17.1 54.3333 17.084H54.4053C54.4213 17.076 54.4493 17.064 54.4893 17.048C54.5293 17.032 54.5773 17.024 54.6333 17.024H54.6453L54.7293 17.084H55.2933L55.2093 16.544L55.1613 16.316C55.1453 16.228 55.1293 16.156 55.1133 16.1C55.0973 16.036 55.0893 15.976 55.0893 15.92C55.0893 15.88 55.0773 15.776 55.0533 15.608C55.0293 15.432 55.0013 15.232 54.9693 15.008L54.9213 14.672C54.8973 14.6 54.8773 14.532 54.8613 14.468C54.8533 14.404 54.8453 14.344 54.8373 14.288L54.8133 14.144V14.084C54.7973 14.068 54.7893 14.048 54.7893 14.024C54.7893 13.992 54.7853 13.976 54.7773 13.976V14.024C54.7773 14.056 54.7613 14.096 54.7293 14.144V14.288C54.7133 14.352 54.7013 14.416 54.6933 14.48C54.6853 14.544 54.6733 14.608 54.6573 14.672L54.5493 15.236C54.4853 15.556 54.4373 15.872 54.4053 16.184C54.3733 16.496 54.3253 16.804 54.2613 17.108Z" fill="white"/>
<path d="M49.3837 20.12H47.5717C47.1477 20.12 46.7797 20.116 46.4677 20.108C46.1557 20.108 45.9037 20.108 45.7117 20.108C45.5277 20.108 45.3677 20.104 45.2317 20.096C45.0957 20.096 44.9837 20.096 44.8957 20.096L43.8757 20.084C43.7957 20.084 43.7197 20.052 43.6477 19.988C43.5837 19.916 43.5517 19.84 43.5517 19.76V15.836L43.5397 15.164C43.5317 14.812 43.5397 14.48 43.5637 14.168C43.5957 13.856 43.6117 13.48 43.6117 13.04V12.752C43.6117 12.504 43.6517 12.316 43.7317 12.188C43.7717 12.116 43.8437 12.08 43.9477 12.08C44.1557 12.08 44.3677 12.084 44.5837 12.092C44.7997 12.092 45.0277 12.096 45.2677 12.104C45.2997 12.112 45.3437 12.116 45.3997 12.116C45.4557 12.116 45.5117 12.116 45.5677 12.116C45.7037 12.116 45.8197 12.116 45.9157 12.116C46.0197 12.116 46.1037 12.12 46.1677 12.128H47.1517C47.3037 12.128 47.4397 12.16 47.5597 12.224C47.6797 12.28 47.7397 12.46 47.7397 12.764L47.7277 12.86C47.7277 12.876 47.7237 12.9 47.7157 12.932C47.7157 12.964 47.7157 13.008 47.7157 13.064C47.6837 13.168 47.6677 13.256 47.6677 13.328C47.6677 13.376 47.6717 13.432 47.6797 13.496C47.6877 13.552 47.6997 13.612 47.7157 13.676C47.7157 13.724 47.7157 13.764 47.7157 13.796C47.7237 13.828 47.7277 13.852 47.7277 13.868L47.7397 13.94V17.084C47.7397 17.156 47.7637 17.2 47.8117 17.216C47.8597 17.224 47.9237 17.228 48.0037 17.228H48.9157C49.0357 17.228 49.1797 17.228 49.3477 17.228C49.5157 17.22 49.7157 17.216 49.9477 17.216C50.0357 17.216 50.1077 17.244 50.1637 17.3C50.2277 17.348 50.2597 17.4 50.2597 17.456V19.868C50.2597 19.924 50.2197 19.972 50.1397 20.012C50.0677 20.052 49.9877 20.076 49.8997 20.084C49.7957 20.108 49.6237 20.12 49.3837 20.12Z" fill="white"/>
<path d="M42.0009 20.12H40.1889C39.7649 20.12 39.3969 20.116 39.0849 20.108C38.7729 20.108 38.5209 20.108 38.3289 20.108C38.1449 20.108 37.9849 20.104 37.8489 20.096C37.7129 20.096 37.6009 20.096 37.5129 20.096L36.4929 20.084C36.4129 20.084 36.3369 20.052 36.2649 19.988C36.2009 19.916 36.1689 19.84 36.1689 19.76V15.836L36.1569 15.164C36.1489 14.812 36.1569 14.48 36.1809 14.168C36.2129 13.856 36.2289 13.48 36.2289 13.04V12.752C36.2289 12.504 36.2689 12.316 36.3489 12.188C36.3889 12.116 36.4609 12.08 36.5649 12.08C36.7729 12.08 36.9849 12.084 37.2009 12.092C37.4169 12.092 37.6449 12.096 37.8849 12.104C37.9169 12.112 37.9609 12.116 38.0169 12.116C38.0729 12.116 38.1289 12.116 38.1849 12.116C38.3209 12.116 38.4369 12.116 38.5329 12.116C38.6369 12.116 38.7209 12.12 38.7849 12.128H39.7689C39.9209 12.128 40.0569 12.16 40.1769 12.224C40.2969 12.28 40.3569 12.46 40.3569 12.764L40.3449 12.86C40.3449 12.876 40.3409 12.9 40.3329 12.932C40.3329 12.964 40.3329 13.008 40.3329 13.064C40.3009 13.168 40.2849 13.256 40.2849 13.328C40.2849 13.376 40.2889 13.432 40.2969 13.496C40.3049 13.552 40.3169 13.612 40.3329 13.676C40.3329 13.724 40.3329 13.764 40.3329 13.796C40.3409 13.828 40.3449 13.852 40.3449 13.868L40.3569 13.94V17.084C40.3569 17.156 40.3809 17.2 40.4289 17.216C40.4769 17.224 40.5409 17.228 40.6209 17.228H41.5329C41.6529 17.228 41.7969 17.228 41.9649 17.228C42.1329 17.22 42.3329 17.216 42.5649 17.216C42.6529 17.216 42.7249 17.244 42.7809 17.3C42.8449 17.348 42.8769 17.4 42.8769 17.456V19.868C42.8769 19.924 42.8369 19.972 42.7569 20.012C42.6849 20.052 42.6049 20.076 42.5169 20.084C42.4129 20.108 42.2409 20.12 42.0009 20.12Z" fill="white"/>
<path d="M31.3025 20.048H29.4065C29.3185 20.048 29.2585 20.044 29.2265 20.036C29.1865 20.028 29.1425 20.02 29.0945 20.012C29.0465 20.012 28.9945 20.008 28.9385 20L28.6865 19.94C28.6465 19.94 28.6145 19.928 28.5905 19.904C28.5905 19.888 28.5905 19.88 28.5905 19.88C28.5905 19.672 28.5785 19.4 28.5545 19.064C28.5545 18.936 28.5465 18.828 28.5305 18.74C28.5225 18.652 28.5145 18.572 28.5065 18.5L28.4825 17.996C28.4745 17.924 28.4705 17.844 28.4705 17.756C28.4785 17.668 28.4785 17.568 28.4705 17.456L28.4465 17.096C28.4385 16.944 28.4345 16.808 28.4345 16.688C28.4425 16.568 28.4425 16.468 28.4345 16.388C28.4345 16.348 28.4305 16.3 28.4225 16.244C28.4225 16.18 28.4225 16.08 28.4225 15.944C28.4225 15.8 28.4225 15.592 28.4225 15.32C28.4225 14.56 28.4265 13.948 28.4345 13.484C28.4505 13.012 28.4745 12.6 28.5065 12.248C28.5065 12.168 28.6065 12.096 28.8065 12.032C28.8865 12.024 28.9785 12.02 29.0825 12.02C29.1945 12.012 29.2985 12.008 29.3945 12.008C29.7225 12.008 30.0025 12.008 30.2345 12.008C30.4745 12 30.6705 11.988 30.8225 11.972C31.2945 11.964 31.7065 11.96 32.0585 11.96C32.4105 11.952 32.7105 11.948 32.9585 11.948H33.4865C33.8225 11.948 34.1145 11.956 34.3625 11.972C34.6105 11.988 34.8225 12.004 34.9985 12.02C35.1185 12.02 35.2105 12.168 35.2745 12.464C35.2905 12.496 35.3025 12.544 35.3105 12.608C35.3185 12.672 35.3345 12.772 35.3585 12.908C35.3745 13.084 35.3905 13.22 35.4065 13.316C35.4225 13.412 35.4385 13.504 35.4545 13.592C35.4625 13.608 35.4665 13.652 35.4665 13.724C35.4585 13.732 35.4545 13.764 35.4545 13.82C35.4465 13.892 35.4025 13.928 35.3225 13.928C35.3065 13.92 35.2625 13.916 35.1905 13.916C35.0145 13.916 34.8225 13.928 34.6145 13.952C34.4145 13.968 34.1865 13.984 33.9305 14L33.3065 14.048L32.6825 14.108C32.6585 14.108 32.6265 14.152 32.5865 14.24C32.5625 14.296 32.5385 14.336 32.5145 14.36C32.4905 14.376 32.4745 14.42 32.4665 14.492L32.4425 14.9C32.4345 15.004 32.4465 15.072 32.4785 15.104C32.5105 15.136 32.5705 15.152 32.6585 15.152H33.7265C34.0305 15.152 34.3865 15.176 34.7945 15.224H34.9145C35.0665 15.224 35.1585 15.312 35.1905 15.488L35.2145 16.676V16.712C35.2145 16.856 35.0785 16.936 34.8065 16.952C34.7345 16.976 34.6265 16.992 34.4825 17C34.3385 17.008 34.1185 17.012 33.8225 17.012C33.5265 17.012 33.3305 17.012 33.2345 17.012C33.1465 17.012 33.0825 17.008 33.0425 17C32.8745 17 32.7665 17 32.7185 17C32.6705 17 32.6385 17.004 32.6225 17.012C32.5425 17.028 32.4865 17.048 32.4545 17.072C32.4305 17.088 32.4185 17.14 32.4185 17.228C32.4185 17.308 32.4145 17.46 32.4065 17.684C32.3985 17.716 32.3905 17.76 32.3825 17.816C32.3825 17.864 32.3825 17.976 32.3825 18.152C32.8625 18.152 33.2385 18.148 33.5105 18.14C33.7825 18.132 33.9945 18.124 34.1465 18.116C34.3785 18.108 34.5865 18.104 34.7705 18.104C34.9625 18.096 35.1345 18.092 35.2865 18.092C35.3105 18.092 35.3425 18.12 35.3825 18.176C35.4145 18.232 35.4585 18.376 35.5145 18.608C35.5705 18.84 35.6385 19.156 35.7185 19.556C35.7345 19.596 35.7425 19.656 35.7425 19.736C35.7425 19.904 35.6665 19.988 35.5145 19.988C35.2585 19.988 34.9745 20 34.6625 20.024C34.6065 20.032 34.5265 20.036 34.4225 20.036C34.3265 20.036 34.1225 20.036 33.8105 20.036C33.5305 20.036 33.2185 20.036 32.8745 20.036C32.5385 20.036 32.2265 20.036 31.9385 20.036C31.6585 20.044 31.4465 20.048 31.3025 20.048Z" fill="white"/>
<path d="M22.556 20.12C22.468 20.12 22.384 20.044 22.304 19.892C22.184 19.628 22.124 19.156 22.124 18.476C22.124 18.148 22.124 17.756 22.124 17.3C22.132 16.836 22.144 16.392 22.16 15.968C22.168 15.832 22.172 15.656 22.172 15.44C22.172 15.216 22.172 14.948 22.172 14.636H20.492C20.284 14.636 20.156 14.42 20.108 13.988C20.1 13.876 20.088 13.736 20.072 13.568C20.064 13.4 20.06 13.204 20.06 12.98V12.812C20.06 12.772 20.06 12.74 20.06 12.716C20.06 12.684 20.064 12.656 20.072 12.632V12.344C20.072 12.296 20.096 12.256 20.144 12.224C20.192 12.192 20.244 12.168 20.3 12.152C20.388 12.128 20.508 12.116 20.66 12.116H21.896C22 12.116 22.088 12.12 22.16 12.128C22.232 12.128 22.296 12.128 22.352 12.128L22.772 12.14H26.972C27.132 12.14 27.26 12.14 27.356 12.14C27.452 12.14 27.524 12.144 27.572 12.152C27.588 12.152 27.612 12.152 27.644 12.152C27.676 12.152 27.708 12.156 27.74 12.164C27.812 12.172 27.872 12.188 27.92 12.212C27.976 12.236 28.004 12.264 28.004 12.296V14.42C28.004 14.524 27.976 14.588 27.92 14.612C27.864 14.628 27.8 14.636 27.728 14.636H26.084V15.272C26.084 15.328 26.084 15.384 26.084 15.44C26.084 15.488 26.08 15.524 26.072 15.548C26.072 15.66 26.068 15.844 26.06 16.1C26.052 16.348 26.04 16.664 26.024 17.048L26.012 17.408C26.004 17.56 25.992 17.74 25.976 17.948C25.968 18.148 25.96 18.284 25.952 18.356V19.484C25.952 19.756 25.896 19.924 25.784 19.988C25.728 20.004 25.684 20.016 25.652 20.024C25.62 20.032 25.592 20.04 25.568 20.048L25.292 20.06C25.14 20.068 25.008 20.072 24.896 20.072C24.784 20.08 24.696 20.084 24.632 20.084L23.396 20.108C23.324 20.108 23.216 20.108 23.072 20.108C22.936 20.116 22.764 20.12 22.556 20.12Z" fill="white"/>
<path d="M60.6367 29.376H58.7407C58.6527 29.376 58.5927 29.372 58.5607 29.364C58.5207 29.356 58.4767 29.348 58.4287 29.34C58.3807 29.34 58.3287 29.336 58.2727 29.328L58.0207 29.268C57.9807 29.268 57.9487 29.256 57.9247 29.232C57.9247 29.216 57.9247 29.208 57.9247 29.208C57.9247 29 57.9127 28.728 57.8887 28.392C57.8887 28.264 57.8807 28.156 57.8647 28.068C57.8567 27.98 57.8487 27.9 57.8407 27.828L57.8167 27.324C57.8087 27.252 57.8047 27.172 57.8047 27.084C57.8127 26.996 57.8127 26.896 57.8047 26.784L57.7807 26.424C57.7727 26.272 57.7687 26.136 57.7687 26.016C57.7767 25.896 57.7767 25.796 57.7687 25.716C57.7687 25.676 57.7647 25.628 57.7567 25.572C57.7567 25.508 57.7567 25.408 57.7567 25.272C57.7567 25.128 57.7567 24.92 57.7567 24.648C57.7567 23.888 57.7607 23.276 57.7687 22.812C57.7847 22.34 57.8087 21.928 57.8407 21.576C57.8407 21.496 57.9407 21.424 58.1407 21.36C58.2207 21.352 58.3127 21.348 58.4167 21.348C58.5287 21.34 58.6327 21.336 58.7287 21.336C59.0567 21.336 59.3367 21.336 59.5687 21.336C59.8087 21.328 60.0047 21.316 60.1567 21.3C60.6287 21.292 61.0407 21.288 61.3927 21.288C61.7447 21.28 62.0447 21.276 62.2927 21.276H62.8207C63.1567 21.276 63.4487 21.284 63.6967 21.3C63.9447 21.316 64.1567 21.332 64.3327 21.348C64.4527 21.348 64.5447 21.496 64.6087 21.792C64.6247 21.824 64.6367 21.872 64.6447 21.936C64.6527 22 64.6687 22.1 64.6927 22.236C64.7087 22.412 64.7247 22.548 64.7407 22.644C64.7567 22.74 64.7727 22.832 64.7887 22.92C64.7967 22.936 64.8007 22.98 64.8007 23.052C64.7927 23.06 64.7887 23.092 64.7887 23.148C64.7807 23.22 64.7367 23.256 64.6567 23.256C64.6407 23.248 64.5967 23.244 64.5247 23.244C64.3487 23.244 64.1567 23.256 63.9487 23.28C63.7487 23.296 63.5207 23.312 63.2647 23.328L62.6407 23.376L62.0167 23.436C61.9927 23.436 61.9607 23.48 61.9207 23.568C61.8967 23.624 61.8727 23.664 61.8487 23.688C61.8247 23.704 61.8087 23.748 61.8007 23.82L61.7767 24.228C61.7687 24.332 61.7807 24.4 61.8127 24.432C61.8447 24.464 61.9047 24.48 61.9927 24.48H63.0607C63.3647 24.48 63.7207 24.504 64.1287 24.552H64.2487C64.4007 24.552 64.4927 24.64 64.5247 24.816L64.5487 26.004V26.04C64.5487 26.184 64.4127 26.264 64.1407 26.28C64.0687 26.304 63.9607 26.32 63.8167 26.328C63.6727 26.336 63.4527 26.34 63.1567 26.34C62.8607 26.34 62.6647 26.34 62.5687 26.34C62.4807 26.34 62.4167 26.336 62.3767 26.328C62.2087 26.328 62.1007 26.328 62.0527 26.328C62.0047 26.328 61.9727 26.332 61.9567 26.34C61.8767 26.356 61.8207 26.376 61.7887 26.4C61.7647 26.416 61.7527 26.468 61.7527 26.556C61.7527 26.636 61.7487 26.788 61.7407 27.012C61.7327 27.044 61.7247 27.088 61.7167 27.144C61.7167 27.192 61.7167 27.304 61.7167 27.48C62.1967 27.48 62.5727 27.476 62.8447 27.468C63.1167 27.46 63.3287 27.452 63.4807 27.444C63.7127 27.436 63.9207 27.432 64.1047 27.432C64.2967 27.424 64.4687 27.42 64.6207 27.42C64.6447 27.42 64.6767 27.448 64.7167 27.504C64.7487 27.56 64.7927 27.704 64.8487 27.936C64.9047 28.168 64.9727 28.484 65.0527 28.884C65.0687 28.924 65.0767 28.984 65.0767 29.064C65.0767 29.232 65.0007 29.316 64.8487 29.316C64.5927 29.316 64.3087 29.328 63.9967 29.352C63.9407 29.36 63.8607 29.364 63.7567 29.364C63.6607 29.364 63.4567 29.364 63.1447 29.364C62.8647 29.364 62.5527 29.364 62.2087 29.364C61.8727 29.364 61.5607 29.364 61.2727 29.364C60.9927 29.372 60.7807 29.376 60.6367 29.376Z" fill="white"/>
<path d="M50.7862 29.484C50.2742 29.484 49.8782 29.468 49.5982 29.436C49.3182 29.412 49.0702 29.364 48.8542 29.292C48.6462 29.204 48.4942 29.084 48.3982 28.932C48.3022 28.78 48.2542 28.576 48.2542 28.32V28.02C48.2622 27.94 48.2662 27.864 48.2662 27.792C48.2742 27.712 48.2782 27.592 48.2782 27.432C48.2862 27.408 48.2902 27.384 48.2902 27.36C48.2902 27.336 48.2902 27.276 48.2902 27.18C48.2902 27.028 48.2862 26.84 48.2782 26.616C48.2782 26.384 48.2742 26.116 48.2662 25.812L48.2542 25.092C48.2382 24.644 48.2222 24.256 48.2062 23.928C48.1982 23.6 48.1942 23.3 48.1942 23.028V22.488C48.1942 22.208 48.2062 22.004 48.2302 21.876C48.2542 21.812 48.2662 21.752 48.2662 21.696C48.2822 21.552 48.3422 21.444 48.4462 21.372C48.5102 21.348 48.5982 21.336 48.7102 21.336C48.7502 21.336 48.7902 21.336 48.8302 21.336C48.8702 21.336 48.9102 21.332 48.9502 21.324C48.9742 21.316 48.9982 21.312 49.0222 21.312C49.0462 21.312 49.1102 21.312 49.2142 21.312C49.2782 21.312 49.3582 21.312 49.4542 21.312C49.5582 21.304 49.6782 21.296 49.8142 21.288C49.8702 21.28 49.9622 21.272 50.0902 21.264C50.2262 21.256 50.3542 21.248 50.4742 21.24C50.6022 21.232 50.6822 21.228 50.7142 21.228C51.0422 21.228 51.3982 21.236 51.7822 21.252C52.1662 21.268 52.5782 21.28 53.0182 21.288C53.4502 21.288 53.8942 21.328 54.3502 21.408C54.8142 21.48 55.2382 21.576 55.6222 21.696C56.0142 21.816 56.3102 21.948 56.5102 22.092C56.7262 22.276 56.8782 22.456 56.9662 22.632C57.0542 22.808 57.0982 23.016 57.0982 23.256C57.0982 23.896 56.8222 24.404 56.2702 24.78L56.1622 24.828C56.1462 24.836 56.1302 24.844 56.1142 24.852C56.0982 24.86 56.0822 24.868 56.0662 24.876C56.0102 24.892 55.9502 24.912 55.8862 24.936C55.8222 24.96 55.7582 24.992 55.6942 25.032C55.6542 25.048 55.6142 25.088 55.5742 25.152H55.5862V25.176L55.6102 25.2C55.8742 25.304 56.1182 25.428 56.3422 25.572C56.5742 25.708 56.7782 25.86 56.9542 26.028C57.2102 26.324 57.3382 26.624 57.3382 26.928C57.3382 27.176 57.2662 27.432 57.1222 27.696C56.9782 27.952 56.7822 28.176 56.5342 28.368C56.2702 28.576 55.9462 28.744 55.5622 28.872C55.1862 28.992 54.7862 29.088 54.3622 29.16C53.9462 29.224 53.5422 29.276 53.1502 29.316C52.7662 29.356 52.4342 29.392 52.1542 29.424C51.8822 29.44 51.6382 29.452 51.4222 29.46C51.2062 29.476 50.9942 29.484 50.7862 29.484ZM52.3222 24.54C52.3542 24.54 52.3982 24.528 52.4542 24.504C52.5422 24.464 52.6342 24.428 52.7302 24.396C52.8342 24.356 52.9262 24.312 53.0062 24.264C53.1182 24.224 53.2262 24.164 53.3302 24.084C53.3782 24.052 53.4182 24.024 53.4502 24C53.4822 23.968 53.5062 23.948 53.5222 23.94L53.6422 23.88L53.7262 23.832C53.7582 23.832 53.7742 23.808 53.7742 23.76C53.7742 23.552 53.6902 23.404 53.5222 23.316C53.3542 23.22 53.0822 23.172 52.7062 23.172C52.3862 23.172 52.2262 23.48 52.2262 24.096V24.492C52.2262 24.524 52.2582 24.54 52.3222 24.54ZM52.4782 27.492H52.5142C53.2662 27.492 53.6422 27.168 53.6422 26.52C53.6502 26.44 53.6422 26.388 53.6182 26.364C53.5942 26.332 53.5422 26.312 53.4622 26.304C53.3422 26.304 53.2622 26.304 53.2222 26.304C53.1822 26.296 53.1022 26.288 52.9822 26.28C52.8062 26.272 52.6702 26.268 52.5742 26.268C52.4862 26.26 52.3862 26.256 52.2742 26.256C52.2182 26.256 52.1862 26.308 52.1782 26.412C52.1702 26.476 52.1542 26.568 52.1302 26.688C52.1142 26.8 52.1022 26.92 52.0942 27.048C52.0942 27.168 52.1222 27.272 52.1782 27.36C52.2342 27.448 52.3342 27.492 52.4782 27.492Z" fill="white"/>
<path d="M44.1718 29.556L43.8598 29.604C43.7478 29.604 43.6638 29.544 43.6078 29.424C43.5598 29.312 43.5278 29.188 43.5118 29.052C43.5038 28.908 43.4998 28.8 43.4998 28.728C43.4998 28.576 43.4958 28.488 43.4878 28.464C43.4798 28.328 43.4718 28.156 43.4638 27.948C43.4558 27.732 43.4398 27.48 43.4158 27.192L43.3678 26.664C43.3358 26.248 43.3158 25.896 43.3078 25.608C43.2998 25.312 43.2958 25.064 43.2958 24.864V21.516C43.2958 21.436 43.3598 21.384 43.4878 21.36C43.6158 21.328 43.7638 21.312 43.9318 21.312C43.9798 21.312 44.0358 21.312 44.0998 21.312C44.1638 21.312 44.2278 21.316 44.2918 21.324C44.3558 21.332 44.4118 21.34 44.4598 21.348C44.5078 21.348 44.5478 21.348 44.5798 21.348C44.6438 21.356 44.7318 21.364 44.8438 21.372C44.9558 21.372 45.0838 21.372 45.2278 21.372L45.2758 21.336H45.8758C45.9158 21.36 45.9518 21.372 45.9838 21.372H46.0318C46.0478 21.356 46.0998 21.348 46.1878 21.348C46.1958 21.34 46.2038 21.336 46.2118 21.336H46.2358C46.2678 21.336 46.2998 21.34 46.3318 21.348L46.4158 21.372H47.1478C47.2598 21.372 47.3358 21.4 47.3758 21.456C47.4158 21.504 47.4358 21.548 47.4358 21.588L47.4718 23.76C47.4718 23.784 47.4678 23.808 47.4598 23.832L47.4238 24.036C47.3918 24.204 47.3758 24.356 47.3758 24.492C47.3758 24.62 47.3758 24.732 47.3758 24.828V27.516L47.3398 28.032C47.3318 28.152 47.3238 28.26 47.3158 28.356C47.3078 28.452 47.3078 28.536 47.3158 28.608C47.3158 28.968 47.2718 29.208 47.1838 29.328C47.1358 29.4 47.0558 29.436 46.9438 29.436L46.9318 29.412L46.8718 29.4C46.8558 29.4 46.8478 29.404 46.8478 29.412H46.7878C46.7638 29.42 46.7438 29.428 46.7278 29.436C46.7118 29.444 46.6998 29.452 46.6918 29.46C46.6678 29.46 46.6278 29.456 46.5718 29.448C46.5158 29.44 46.4478 29.428 46.3678 29.412L46.1758 29.4C46.1358 29.4 46.1118 29.42 46.1038 29.46H44.8678L44.5078 29.52L44.1718 29.556Z" fill="white"/>
<path d="M40.0484 29.856C40.0004 29.856 39.9684 29.852 39.9524 29.844C39.8404 29.772 39.7484 29.692 39.6764 29.604C39.6604 29.588 39.6484 29.572 39.6404 29.556C39.6404 29.548 39.6364 29.544 39.6284 29.544C39.6124 29.528 39.6004 29.52 39.5924 29.52H39.5804L39.5204 29.472L38.3444 27.9C38.3284 27.844 38.3004 27.792 38.2604 27.744C38.2284 27.688 38.1924 27.632 38.1524 27.576C38.1204 27.552 38.0924 27.528 38.0684 27.504C38.0444 27.472 38.0244 27.44 38.0084 27.408C37.9764 27.36 37.9444 27.336 37.9124 27.336C37.8804 27.336 37.8564 27.38 37.8404 27.468C37.8244 27.572 37.8124 27.732 37.8044 27.948C37.8044 28.164 37.8044 28.364 37.8044 28.548C37.8044 28.868 37.7844 29.14 37.7444 29.364C37.7364 29.46 37.7044 29.508 37.6484 29.508H37.5644L37.5284 29.484H37.5164C37.3324 29.5 37.0844 29.516 36.7724 29.532C36.4604 29.556 36.1484 29.576 35.8364 29.592C35.5324 29.608 35.2884 29.616 35.1044 29.616C35.0644 29.616 35.0284 29.612 34.9964 29.604C34.9644 29.604 34.9364 29.6 34.9124 29.592H34.3484L33.9404 29.448L33.9044 29.364V29.316C33.8964 29.3 33.8924 29.268 33.8924 29.22C33.8924 29.204 33.8884 29.176 33.8804 29.136C33.8724 29.088 33.8644 29.032 33.8564 28.968C33.8324 28.736 33.8164 28.536 33.8084 28.368C33.8084 28.192 33.8124 28.132 33.8204 28.188C33.8124 28.084 33.8004 27.944 33.7844 27.768C33.7684 27.592 33.7524 27.38 33.7364 27.132L33.7124 26.712C33.7124 26.432 33.7004 26.216 33.6764 26.064L33.6404 25.812C33.6164 25.652 33.6044 25.5 33.6044 25.356C33.6124 25.212 33.6164 25.072 33.6164 24.936C33.6164 24.92 33.6204 24.908 33.6284 24.9V24.792C33.6364 24.76 33.6404 24.688 33.6404 24.576L33.6644 24.372L33.6764 24.24C33.6764 24.08 33.6644 23.84 33.6404 23.52C33.6164 23.328 33.6044 23.084 33.6044 22.788C33.6044 22.58 33.6084 22.396 33.6164 22.236C33.6324 22.076 33.6564 21.948 33.6884 21.852C33.7444 21.572 33.8604 21.432 34.0364 21.432C34.4684 21.432 34.9044 21.44 35.3444 21.456C35.7924 21.464 36.2364 21.468 36.6764 21.468C36.7804 21.468 36.9044 21.472 37.0484 21.48C37.2004 21.48 37.3764 21.484 37.5764 21.492L38.0204 21.504L39.6524 21.528C40.6364 21.56 41.3884 21.808 41.9084 22.272C42.1404 22.464 42.3124 22.696 42.4244 22.968C42.5364 23.24 42.5924 23.528 42.5924 23.832C42.5924 24.176 42.5324 24.488 42.4124 24.768C42.3004 25.04 42.1404 25.276 41.9324 25.476C41.7324 25.66 41.5124 25.808 41.2724 25.92C41.3044 25.928 41.3404 25.964 41.3804 26.028C41.4204 26.084 41.4484 26.144 41.4644 26.208C41.4804 26.24 41.5004 26.264 41.5244 26.28C41.5564 26.288 41.5884 26.312 41.6204 26.352L41.7764 26.544L41.8604 26.628C41.8844 26.652 41.9004 26.676 41.9084 26.7C41.9244 26.716 41.9404 26.736 41.9564 26.76L42.3284 27.312C42.4404 27.472 42.5364 27.608 42.6164 27.72C42.7044 27.824 42.7644 27.916 42.7964 27.996C42.8524 28.1 42.8804 28.176 42.8804 28.224C42.8804 28.36 42.7604 28.508 42.5204 28.668C42.4644 28.7 42.4124 28.732 42.3644 28.764C42.3164 28.796 42.2604 28.828 42.1964 28.86C42.0684 28.916 41.9764 28.972 41.9204 29.028L41.5124 29.316C41.4324 29.372 41.3524 29.412 41.2724 29.436C41.1924 29.468 41.1084 29.496 41.0204 29.52C41.0044 29.52 40.9964 29.524 40.9964 29.532C40.9964 29.54 40.9884 29.54 40.9724 29.532C40.9644 29.532 40.9524 29.54 40.9364 29.556C40.9124 29.58 40.7884 29.624 40.5644 29.688C40.5244 29.712 40.4564 29.732 40.3604 29.748C40.3044 29.788 40.2524 29.808 40.2044 29.808H40.1564C40.1404 29.84 40.1284 29.856 40.1204 29.856H40.0484ZM37.7804 25.668H37.9484C38.1884 25.668 38.3564 25.556 38.4524 25.332C38.5484 25.1 38.6044 24.848 38.6204 24.576C38.6284 24.488 38.6324 24.396 38.6324 24.3C38.6404 24.204 38.6444 24.1 38.6444 23.988V23.868C38.6444 23.684 38.6324 23.484 38.6084 23.268C38.5844 23.052 38.4804 22.888 38.2964 22.776C38.1924 22.704 38.0764 22.668 37.9484 22.668C37.9084 22.668 37.8804 22.716 37.8644 22.812C37.8004 22.98 37.7604 23.252 37.7444 23.628C37.7364 23.7 37.7284 23.78 37.7204 23.868C37.7124 23.956 37.7044 24.052 37.6964 24.156L37.6844 24.504C37.6764 24.728 37.6724 24.936 37.6724 25.128C37.6724 25.312 37.6724 25.476 37.6724 25.62C37.6724 25.644 37.6804 25.656 37.6964 25.656L37.7804 25.668Z" fill="white"/>
<path d="M32.608 26.58C32.712 26.612 32.764 26.68 32.764 26.784V26.82C32.964 27.372 33.064 27.992 33.064 28.68C32.744 29.016 32.32 29.26 31.792 29.412C31.272 29.564 30.592 29.64 29.752 29.64C28.376 29.64 27.252 29.276 26.38 28.548C25.46 27.78 25 26.712 25 25.344C25 24.576 25.108 23.932 25.324 23.412C25.548 22.884 25.9 22.436 26.38 22.068C26.66 21.852 27.004 21.664 27.412 21.504C27.828 21.344 28.28 21.22 28.768 21.132C29.256 21.044 29.748 21 30.244 21C30.372 21 30.48 21.008 30.568 21.024C30.656 21.032 30.76 21.044 30.88 21.06C31.008 21.076 31.188 21.1 31.42 21.132C31.468 21.132 31.516 21.14 31.564 21.156C31.612 21.164 31.664 21.172 31.72 21.18L32.116 21.24C32.18 21.248 32.256 21.264 32.344 21.288C32.432 21.312 32.504 21.324 32.56 21.324C32.568 21.324 32.576 21.328 32.584 21.336C32.592 21.336 32.604 21.34 32.62 21.348C32.628 21.356 32.636 21.368 32.644 21.384C32.652 21.4 32.66 21.412 32.668 21.42C32.724 21.452 32.756 21.468 32.764 21.468H32.8L32.824 21.708C32.832 21.772 32.836 21.836 32.836 21.9C32.836 21.964 32.84 22.028 32.848 22.092C32.856 22.172 32.86 22.28 32.86 22.416C32.868 22.552 32.872 22.7 32.872 22.86C32.872 23.076 32.852 23.24 32.812 23.352C32.78 23.456 32.72 23.54 32.632 23.604L31.624 23.46H31.456C31.376 23.46 31.324 23.46 31.3 23.46C31.284 23.452 31.264 23.448 31.24 23.448C31.216 23.44 31.156 23.44 31.06 23.448L31.048 23.46C30.44 23.46 29.956 23.632 29.596 23.976C29.244 24.32 29.068 24.784 29.068 25.368C29.068 25.928 29.236 26.364 29.572 26.676C29.916 26.988 30.356 27.112 30.892 27.048L31.408 26.988C31.56 26.972 31.72 26.944 31.888 26.904C32.064 26.864 32.304 26.756 32.608 26.58Z" fill="white"/>
<path d="M7.20223 16.8585C7.20223 16.8585 4.58691 15.7449 3.98215 17.0815C3.73574 17.6262 4.48573 18.5026 4.96967 18.9731C5.4536 19.4435 10.1994 22.5058 12.7305 23.4796C14.2675 24.071 19.5974 26.8804 20.8602 25.0056C22.123 23.1309 10.6182 18.1689 10.6182 18.1689C10.6182 18.1689 18.893 21.987 19.7378 22.3153C22.752 23.4868 23.249 24.8057 23.1517 25.7429C23.0671 26.5574 22.2231 26.7032 21.7307 26.8837C20.9292 27.1777 14.5614 25.2309 13.0244 24.6395C8.03325 22.7192 1.19733 18.2436 1.42015 16.6689C1.73099 14.472 6.79505 16.219 6.79505 16.219L7.20223 16.8585Z" fill="white"/>
<path d="M22.9978 23.799C23.5755 24.5002 23.7111 25.1989 23.6493 25.7944C23.5855 26.4088 23.2182 26.7713 22.8411 26.9856C22.5112 27.173 22.0727 27.2909 21.9027 27.3532C21.7744 27.4003 21.6367 27.4108 21.5273 27.4129C21.4088 27.4152 21.2768 27.4076 21.1384 27.3933C20.8611 27.3646 20.5222 27.3068 20.1483 27.2302C19.3983 27.0764 18.4664 26.8385 17.5198 26.5753C15.6296 26.0498 13.6355 25.4103 12.845 25.1062C10.3085 24.1303 7.31793 22.5122 4.98706 20.939C3.82241 20.1529 2.80565 19.367 2.08808 18.6666C1.73039 18.3175 1.43165 17.9748 1.2272 17.6521C1.03306 17.3454 0.871635 16.9751 0.924914 16.5986C0.978776 16.2182 1.14155 15.9021 1.39302 15.6592C1.63783 15.4227 1.94351 15.2778 2.25634 15.1902C2.87155 15.018 3.61311 15.0403 4.28573 15.1238C4.96962 15.2088 5.63679 15.3649 6.12874 15.4976C6.37575 15.5643 6.58169 15.6255 6.72598 15.6706C6.79818 15.6932 6.85561 15.7122 6.89506 15.7252C6.91464 15.7317 6.93009 15.7364 6.94069 15.7399C6.94599 15.7417 6.95042 15.7438 6.95336 15.7448C6.95462 15.7452 6.95594 15.7456 6.95672 15.7459L6.95809 15.746L7.12336 15.8037L7.21711 15.9501L8.48981 17.9502L7.00628 17.3191L7.00231 17.3173C6.9987 17.3158 6.99299 17.3131 6.98506 17.3098C6.96858 17.3032 6.94291 17.2928 6.90982 17.2801C6.84355 17.2547 6.7467 17.2194 6.62826 17.1805C6.38923 17.1021 6.07168 17.013 5.74346 16.9629C5.40861 16.9118 5.10038 16.9072 4.86285 16.9673C4.6416 17.0234 4.51105 17.1249 4.43744 17.2876C4.43713 17.2883 4.43433 17.2958 4.43382 17.3143C4.43332 17.3349 4.43624 17.3682 4.44849 17.4152C4.47418 17.5137 4.53237 17.6401 4.62575 17.7889C4.81263 18.0866 5.08944 18.3916 5.31838 18.6141C5.39907 18.6926 5.74151 18.9448 6.3079 19.3225C6.85365 19.6865 7.56486 20.1402 8.34071 20.6097C9.90225 21.5547 11.6893 22.543 12.9099 23.0127C13.3058 23.165 13.955 23.4639 14.6691 23.7719C15.4 24.0871 16.2335 24.428 17.0519 24.6916C17.877 24.9574 18.6535 25.1329 19.2799 25.1409C19.9158 25.149 20.2702 24.9865 20.4457 24.7258C20.4546 24.7126 20.4594 24.7024 20.4563 24.6735C20.4519 24.6323 20.4296 24.5541 20.3566 24.4355C20.2077 24.1933 19.9149 23.8881 19.4784 23.535C18.6145 22.8362 17.3279 22.0578 15.9747 21.3236C14.9837 20.7859 13.9701 20.2787 13.0839 19.8523C12.58 19.6208 12.1127 19.4083 11.7153 19.2254C11.3207 19.0438 10.9943 18.8926 10.7663 18.7875C10.6523 18.735 10.5626 18.6936 10.5018 18.6655L10.4105 18.6236L10.4092 18.6234L10.8161 17.7093L10.8247 17.7137C10.8256 17.7141 10.827 17.7143 10.828 17.7148C10.829 17.7152 10.832 17.7166 10.834 17.7175C10.8388 17.7196 10.8439 17.7213 10.8506 17.7242C10.8728 17.7338 10.9056 17.7489 10.948 17.7675C11.0329 17.8047 11.1568 17.8597 11.3137 17.9297C11.6279 18.07 12.075 18.2721 12.6072 18.5206C12.8815 18.6487 13.1791 18.7896 13.4928 18.9405C13.9915 19.1695 14.5273 19.4161 15.0696 19.6644C17.2548 20.665 19.5125 21.6914 19.9184 21.8493C21.4682 22.4516 22.4338 23.1145 22.9978 23.799ZM10.0993 22.772C9.33435 22.3587 8.54832 21.9036 7.82412 21.4653C7.03682 20.9888 6.31203 20.5281 5.75283 20.1551C5.21433 19.796 4.78229 19.4887 4.62097 19.3319C4.36605 19.0841 4.02584 18.7155 3.7784 18.3214C3.6548 18.1245 3.54127 17.9001 3.48046 17.6664C3.41956 17.4322 3.40258 17.1497 3.52667 16.8754C3.69149 16.5111 3.95778 16.2751 4.25774 16.1294C4.22598 16.1251 4.19373 16.1201 4.16194 16.1162C3.53004 16.0377 2.94768 16.0354 2.52614 16.1533C2.3207 16.2108 2.17984 16.29 2.08821 16.3784C2.00332 16.4604 1.93933 16.5701 1.91543 16.7388C1.91303 16.7558 1.91629 16.8703 2.07272 17.1172C2.21895 17.3481 2.45704 17.6286 2.78672 17.9504C3.44414 18.5921 4.40629 19.3407 5.54656 20.1104C6.91218 21.0321 8.51054 21.9661 10.0993 22.772ZM22.226 24.4349C21.9389 24.0865 21.4688 23.7018 20.7196 23.3074C20.9169 23.508 21.0845 23.71 21.2086 23.9118C21.447 24.2996 21.5929 24.8127 21.2752 25.2847C20.9135 25.8217 20.3435 26.0486 19.7408 26.1159C19.9548 26.1657 20.1582 26.2114 20.3485 26.2504C20.7081 26.3241 21.0107 26.3742 21.241 26.398C21.3562 26.4099 21.4446 26.4152 21.508 26.414C21.5807 26.4126 21.5868 26.4044 21.5587 26.4147C21.881 26.2965 22.1107 26.2503 22.3471 26.116C22.5361 26.0087 22.634 25.8913 22.6547 25.6912C22.6902 25.3497 22.6257 24.9202 22.226 24.4349Z" fill="#FBECEC"/>
<path d="M4.72 28.064C4.77333 27.456 4.96533 26.8533 5.296 26.256C5.62667 25.6587 6.00533 25.1787 6.432 24.816C7.34933 25.392 8.37333 25.8933 9.504 26.32C10.6453 26.736 11.776 26.944 12.896 26.944C13.9947 26.944 14.8213 26.6933 15.376 26.192C15.9307 25.6907 16.208 25.0933 16.208 24.4C16.208 23.856 16.0267 23.3333 15.664 22.832C15.312 22.32 14.6773 21.872 13.76 21.488L9.904 19.888C8.57067 19.3227 7.488 18.5867 6.656 17.68C5.824 16.7733 5.408 15.5947 5.408 14.144C5.408 12.896 5.73333 11.7867 6.384 10.816C7.03467 9.84533 7.92533 9.08267 9.056 8.528C10.1973 7.97333 11.488 7.696 12.928 7.696C14.3467 7.696 15.6853 7.88267 16.944 8.256C18.2027 8.62933 19.248 9.024 20.08 9.44C20.048 10.0587 19.8987 10.6613 19.632 11.248C19.376 11.8347 19.0293 12.32 18.592 12.704C17.7707 12.3093 16.8373 11.9573 15.792 11.648C14.7467 11.3387 13.8027 11.184 12.96 11.184C11.9147 11.184 11.1253 11.4347 10.592 11.936C10.0693 12.4267 9.808 12.9813 9.808 13.6C9.808 14.1547 9.99467 14.624 10.368 15.008C10.7413 15.3813 11.3013 15.728 12.048 16.048L15.936 17.648C16.9067 18.0533 17.7493 18.5547 18.464 19.152C19.1893 19.7493 19.7493 20.4427 20.144 21.232C20.5493 22.0107 20.752 22.864 20.752 23.792C20.752 25.0507 20.448 26.1813 19.84 27.184C19.2427 28.1867 18.3413 28.9813 17.136 29.568C15.9307 30.1547 14.4213 30.448 12.608 30.448C11.296 30.448 9.93067 30.24 8.512 29.824C7.104 29.408 5.84 28.8213 4.72 28.064Z" fill="white"/>
</svg>
